<?xml version="1.0" standalone="no"?>
<!DOCTYPE svg PUBLIC "-//W3C//DTD SVG 20010904//EN"
 "http://www.w3.org/TR/2001/REC-SVG-20010904/DTD/svg10.dtd">
<svg version="1.0" xmlns="http://www.w3.org/2000/svg"
 width="78.000000pt" height="78.000000pt" viewBox="0 0 78.000000 78.000000"
 preserveAspectRatio="xMidYMid meet">

<g transform="translate(0.000000,78.000000) scale(0.100000,-0.100000)"
fill="#000000" stroke="none">
<path d="M300 595 c-36 -19 -60 -34 -55 -34 6 0 39 15 75 34 36 19 61 34 55
34 -5 0 -39 -15 -75 -34z"/>
<path d="M363 563 c15 -2 39 -2 55 0 15 2 2 4 -28 4 -30 0 -43 -2 -27 -4z"/>
<path d="M217 553 c-4 -3 -7 -20 -7 -38 0 -17 -6 -37 -12 -45 -11 -12 -10 -12
4 -2 18 15 34 0 22 -20 -5 -10 -4 -10 6 -1 11 10 11 15 0 27 -7 9 -10 31 -8
51 4 38 4 38 -5 28z"/>
<path d="M303 540 c-3 -11 -10 -20 -17 -20 -6 0 -5 -4 3 -9 9 -6 12 -18 7 -37
-27 -110 -22 -121 59 -113 35 3 46 6 26 7 l-34 2 6 53 c4 35 3 47 -3 37 -5 -8
-10 -32 -10 -52 0 -34 -3 -38 -26 -38 -24 0 -26 2 -20 38 18 120 22 152 18
152 -2 0 -6 -9 -9 -20z"/>
<path d="M543 545 c0 -8 4 -15 9 -15 4 0 8 4 8 9 0 6 -4 12 -8 15 -5 3 -9 -1
-9 -9z"/>
<path d="M473 495 c0 -22 2 -30 4 -17 2 12 2 30 0 40 -3 9 -5 -1 -4 -23z"/>
<path d="M420 450 c0 -11 4 -20 9 -20 5 0 7 9 4 20 -3 11 -7 20 -9 20 -2 0 -4
-9 -4 -20z"/>
<path d="M480 441 c0 -6 4 -13 10 -16 6 -3 7 1 4 9 -7 18 -14 21 -14 7z"/>
<path d="M520 406 c0 -3 9 -10 20 -16 11 -6 20 -8 20 -6 0 3 -9 10 -20 16 -11
6 -20 8 -20 6z"/>
<path d="M464 384 c-18 -14 -18 -15 4 -4 12 6 22 13 22 15 0 8 -5 6 -26 -11z"/>
<path d="M495 370 c-3 -6 1 -7 9 -4 18 7 21 14 7 14 -6 0 -13 -4 -16 -10z"/>
<path d="M570 376 c0 -3 9 -10 20 -16 11 -6 20 -8 20 -6 0 3 -9 10 -20 16 -11
6 -20 8 -20 6z"/>
<path d="M530 366 c0 -3 9 -10 20 -16 11 -6 20 -8 20 -6 0 3 -9 10 -20 16 -11
6 -20 8 -20 6z"/>
<path d="M393 335 c-3 -9 -3 -18 -1 -21 3 -3 8 4 11 16 6 23 -1 27 -10 5z"/>
<path d="M300 336 c0 -2 8 -10 18 -17 15 -13 16 -12 3 4 -13 16 -21 21 -21 13z"/>
<path d="M589 308 c4 -28 6 -29 9 -9 2 13 0 27 -5 32 -6 6 -7 -3 -4 -23z"/>
<path d="M352 311 c-11 -6 -9 -9 6 -13 15 -4 19 -2 15 8 -6 16 -4 16 -21 5z"/>
<path d="M621 294 c0 -11 3 -14 6 -6 3 7 2 16 -1 19 -3 4 -6 -2 -5 -13z"/>
<path d="M400 282 c0 -23 27 -66 62 -97 l33 -30 -32 35 c-18 19 -39 51 -47 70
-8 19 -15 29 -16 22z"/>
<path d="M580 262 c0 -6 -12 -25 -27 -44 -22 -27 -23 -29 -4 -13 27 23 45 54
37 63 -3 3 -6 0 -6 -6z"/>
<path d="M440 254 c0 -6 15 -23 33 -40 l32 -29 -30 35 c-16 19 -31 37 -32 39
-2 2 -3 0 -3 -5z"/>
<path d="M159 207 c4 -4 66 -6 137 -5 l129 3 -137 5 c-75 3 -134 1 -129 -3z"/>
<path d="M569 193 l-24 -28 28 24 c15 14 27 26 27 28 0 8 -8 1 -31 -24z"/>
<path d="M327 176 c-3 -8 -18 -16 -34 -19 -15 -2 19 -5 76 -6 57 0 101 2 98 6
-4 3 -36 5 -72 4 -55 -2 -64 0 -59 13 3 9 4 16 1 16 -3 0 -7 -6 -10 -14z"/>
<path d="M515 160 c-16 -7 -17 -9 -3 -9 9 -1 20 4 23 9 7 11 7 11 -20 0z"/>
</g>
</svg>
